<svg width="29" height="29" viewBox="0 0 29 29" fill="none" xmlns="http://www.w3.org/2000/svg">
<path d="M7.27783 20.8948C8.30492 20.1327 9.42383 19.5309 10.6346 19.0893C11.8451 18.6478 13.1336 18.4271 14.5 18.4271C15.8665 18.4271 17.155 18.6478 18.3655 19.0893C19.5763 19.5309 20.6952 20.1327 21.7222 20.8948C22.4734 20.0691 23.0686 19.1133 23.5079 18.0274C23.9471 16.9415 24.1667 15.7657 24.1667 14.5C24.1667 11.8215 23.2252 9.5408 21.3422 7.65781C19.4592 5.77483 17.1785 4.83334 14.5 4.83334C11.8216 4.83334 9.54084 5.77483 7.65785 7.65781C5.77487 9.5408 4.83337 11.8215 4.83337 14.5C4.83337 15.7657 5.05299 16.9415 5.49222 18.0274C5.93145 19.1133 6.52665 20.0691 7.27783 20.8948ZM14.5003 15.4063C13.3971 15.4063 12.4668 15.0276 11.7094 14.2704C10.9518 13.513 10.573 12.5827 10.573 11.4795C10.573 10.3763 10.9516 9.44595 11.7088 8.68852C12.4662 7.9309 13.3965 7.55209 14.4997 7.55209C15.6029 7.55209 16.5333 7.9307 17.2907 8.68792C18.0483 9.44534 18.4271 10.3757 18.4271 11.4789C18.4271 12.5821 18.0485 13.5124 17.2913 14.2698C16.5339 15.0274 15.6036 15.4063 14.5003 15.4063ZM14.5 25.9792C12.906 25.9792 11.4107 25.6794 10.0141 25.0799C8.61747 24.4803 7.40259 23.6639 6.36947 22.6306C5.33614 21.5975 4.51971 20.3826 3.92018 18.9859C3.32064 17.5893 3.02087 16.094 3.02087 14.5C3.02087 12.906 3.32064 11.4107 3.92018 10.0141C4.51971 8.61743 5.33614 7.40255 6.36947 6.36943C7.40259 5.3361 8.61747 4.51967 10.0141 3.92014C11.4107 3.3206 12.906 3.02084 14.5 3.02084C16.094 3.02084 17.5893 3.3206 18.986 3.92014C20.3826 4.51967 21.5975 5.3361 22.6306 6.36943C23.6639 7.40255 24.4804 8.61743 25.0799 10.0141C25.6794 11.4107 25.9792 12.906 25.9792 14.5C25.9792 16.094 25.6794 17.5893 25.0799 18.9859C24.4804 20.3826 23.6639 21.5975 22.6306 22.6306C21.5975 23.6639 20.3826 24.4803 18.986 25.0799C17.5893 25.6794 16.094 25.9792 14.5 25.9792ZM14.5 24.1667C15.5906 24.1667 16.642 23.9913 17.6544 23.6404C18.6668 23.2894 19.5657 22.7987 20.3511 22.1684C19.5657 21.561 18.6785 21.0877 17.6894 20.7486C16.7002 20.4093 15.6371 20.2396 14.5 20.2396C13.363 20.2396 12.298 20.4072 11.3049 20.7426C10.3119 21.0781 9.42655 21.5533 8.64899 22.1684C9.43441 22.7987 10.3333 23.2894 11.3457 23.6404C12.3581 23.9913 13.4095 24.1667 14.5 24.1667ZM14.5 13.5938C15.1012 13.5938 15.6039 13.3916 16.008 12.9872C16.4124 12.583 16.6146 12.0803 16.6146 11.4792C16.6146 10.878 16.4124 10.3754 16.008 9.97117C15.6039 9.56678 15.1012 9.36459 14.5 9.36459C13.8989 9.36459 13.3962 9.56678 12.992 9.97117C12.5877 10.3754 12.3855 10.878 12.3855 11.4792C12.3855 12.0803 12.5877 12.583 12.992 12.9872C13.3962 13.3916 13.8989 13.5938 14.5 13.5938Z" fill="black"/>
</svg>
