<svg width="27" height="22" viewBox="0 0 27 22" fill="none" xmlns="http://www.w3.org/2000/svg">
<path d="M5.98993 21.7367C5.50035 21.7367 5.06153 21.5899 4.67345 21.2963C4.28537 21.0027 4.02236 20.6173 3.88441 20.1402L1.0125 9.83466C0.919461 9.49069 0.979072 9.1731 1.19134 8.88189C1.4036 8.59068 1.69179 8.44508 2.0559 8.44508H7.76044L12.5892 1.21622C12.6899 1.06276 12.8192 0.943441 12.9771 0.858253C13.1352 0.773066 13.3072 0.730473 13.4931 0.730473C13.679 0.730473 13.8509 0.774979 14.009 0.863993C14.1669 0.953007 14.2962 1.07424 14.3969 1.2277L19.2025 8.44508H24.9442C25.3083 8.44508 25.5984 8.59068 25.8145 8.88189C26.0305 9.1731 26.0882 9.49069 25.9875 9.83466L23.0924 20.1402C22.9544 20.6173 22.6914 21.0027 22.3033 21.2963C21.9153 21.5899 21.4765 21.7367 20.9872 21.7367H5.98993ZM5.92468 19.9242H21.0754C21.1606 19.9242 21.2342 19.8991 21.2962 19.8487C21.358 19.7984 21.4006 19.7306 21.424 19.6454L24.0125 10.2576H2.98752L5.57608 19.6454C5.59944 19.7306 5.64203 19.7984 5.70386 19.8487C5.76588 19.8991 5.83949 19.9242 5.92468 19.9242ZM13.5 16.9034C13.9942 16.9034 14.4199 16.7249 14.7769 16.3678C15.134 16.0108 15.3125 15.5851 15.3125 15.0909C15.3125 14.5967 15.134 14.1711 14.7769 13.814C14.4199 13.4569 13.9942 13.2784 13.5 13.2784C13.0058 13.2784 12.5802 13.4569 12.2231 13.814C11.8661 14.1711 11.6875 14.5967 11.6875 15.0909C11.6875 15.5851 11.8661 16.0108 12.2231 16.3678C12.5802 16.7249 13.0058 16.9034 13.5 16.9034ZM9.9587 8.44508H17.0229L13.4813 3.11451L9.9587 8.44508Z" fill="#0000FF"/>
</svg>
