<svg width="31" height="26" viewBox="0 0 31 26" fill="none" xmlns="http://www.w3.org/2000/svg">
<path d="M6.07249 25.772C5.48162 25.772 4.952 25.5948 4.48363 25.2404C4.01526 24.886 3.69783 24.4209 3.53134 23.8451L0.0652472 11.4074C-0.0470444 10.9922 0.0249 10.6089 0.281081 10.2575C0.537261 9.90601 0.885074 9.73028 1.32452 9.73028H8.20931L14.0372 1.00581C14.1587 0.820598 14.3147 0.676586 14.5053 0.573774C14.6961 0.470961 14.9037 0.419556 15.128 0.419556C15.3523 0.419556 15.5599 0.47327 15.7507 0.580701C15.9413 0.688131 16.0973 0.834452 16.2188 1.01966L22.0186 9.73028H28.9483C29.3877 9.73028 29.7378 9.90601 29.9986 10.2575C30.2594 10.6089 30.3291 10.9922 30.2075 11.4074L26.7134 23.8451C26.5469 24.4209 26.2295 24.886 25.7611 25.2404C25.2927 25.5948 24.7632 25.772 24.1726 25.772H6.07249ZM5.99374 23.5845H24.2791C24.3819 23.5845 24.4707 23.5541 24.5456 23.4933C24.6202 23.4325 24.6716 23.3508 24.6998 23.2479L27.8239 11.9178H2.44889L5.57301 23.2479C5.6012 23.3508 5.65261 23.4325 5.72723 23.4933C5.80209 23.5541 5.89092 23.5845 5.99374 23.5845ZM15.1364 19.9386C15.7329 19.9386 16.2466 19.7232 16.6775 19.2922C17.1084 18.8613 17.3239 18.3476 17.3239 17.7511C17.3239 17.1547 17.1084 16.641 16.6775 16.21C16.2466 15.7791 15.7329 15.5636 15.1364 15.5636C14.5399 15.5636 14.0262 15.7791 13.5953 16.21C13.1644 16.641 12.9489 17.1547 12.9489 17.7511C12.9489 18.3476 13.1644 18.8613 13.5953 19.2922C14.0262 19.7232 14.5399 19.9386 15.1364 19.9386ZM10.8624 9.73028H19.3882L15.1138 3.29685L10.8624 9.73028Z" fill="white"/>
</svg>
