<svg width="24" height="26" viewBox="0 0 24 26" fill="none" xmlns="http://www.w3.org/2000/svg">
<path d="M2.04163 8.64269H18.9583V5.62185C18.9583 5.52881 18.9195 5.44362 18.842 5.36629C18.7647 5.28875 18.6795 5.24999 18.5864 5.24999H2.41349C2.32045 5.24999 2.23526 5.28875 2.15793 5.36629C2.08039 5.44362 2.04163 5.52881 2.04163 5.62185V8.64269ZM2.41349 23.9792C1.80308 23.9792 1.28642 23.7677 0.863501 23.3448C0.440584 22.9219 0.229126 22.4052 0.229126 21.7948V5.62185C0.229126 5.01144 0.440584 4.49478 0.863501 4.07186C1.28642 3.64895 1.80308 3.43749 2.41349 3.43749H4.08643V0.881561H5.94545V3.43749H15.101V0.881561H16.9135V3.43749H18.5864C19.1968 3.43749 19.7135 3.64895 20.1364 4.07186C20.5593 4.49478 20.7708 5.01144 20.7708 5.62185V12.2236C20.481 12.0965 20.1851 11.9938 19.883 11.9155C19.5809 11.8373 19.2727 11.7758 18.9583 11.7309V10.4552H2.04163V21.7948C2.04163 21.8878 2.08039 21.973 2.15793 22.0504C2.23526 22.1279 2.32045 22.1667 2.41349 22.1667H10.2701C10.3722 22.5012 10.4957 22.8175 10.6407 23.1158C10.7855 23.4141 10.9501 23.7018 11.1343 23.9792H2.41349ZM17.9823 25.1875C16.4735 25.1875 15.19 24.6584 14.1319 23.6003C13.0738 22.5422 12.5448 21.2588 12.5448 19.75C12.5448 18.2412 13.0738 16.9577 14.1319 15.8996C15.19 14.8415 16.4735 14.3125 17.9823 14.3125C19.4913 14.3125 20.7747 14.8415 21.8326 15.8996C22.8907 16.9577 23.4198 18.2412 23.4198 19.75C23.4198 21.2588 22.8907 22.5422 21.8326 23.6003C20.7747 24.6584 19.4913 25.1875 17.9823 25.1875ZM19.9947 22.5153L20.7475 21.7625L18.517 19.5316V16.1948H17.4479V19.9684L19.9947 22.5153Z" fill="black"/>
</svg>
