<svg width="29" height="29" viewBox="0 0 29 29" fill="none" xmlns="http://www.w3.org/2000/svg">
<path d="M6.04163 10.6427H22.9583V7.62185C22.9583 7.52881 22.9195 7.44362 22.842 7.36629C22.7647 7.28875 22.6795 7.24999 22.5864 7.24999H6.41349C6.32045 7.24999 6.23526 7.28875 6.15793 7.36629C6.08039 7.44362 6.04163 7.52881 6.04163 7.62185V10.6427ZM6.41349 25.9792C5.80308 25.9792 5.28642 25.7677 4.8635 25.3448C4.44058 24.9219 4.22913 24.4052 4.22913 23.7948V7.62185C4.22913 7.01144 4.44058 6.49478 4.8635 6.07186C5.28642 5.64895 5.80308 5.43749 6.41349 5.43749H8.08643V2.88156H9.94545V5.43749H19.101V2.88156H20.9135V5.43749H22.5864C23.1968 5.43749 23.7135 5.64895 24.1364 6.07186C24.5593 6.49478 24.7708 7.01144 24.7708 7.62185V14.2236C24.481 14.0965 24.1851 13.9938 23.883 13.9155C23.5809 13.8373 23.2727 13.7758 22.9583 13.7309V12.4552H6.04163V23.7948C6.04163 23.8878 6.08039 23.973 6.15793 24.0504C6.23526 24.1279 6.32045 24.1667 6.41349 24.1667H14.2701C14.3722 24.5012 14.4957 24.8175 14.6407 25.1158C14.7855 25.4141 14.9501 25.7018 15.1343 25.9792H6.41349ZM21.9823 27.1875C20.4735 27.1875 19.19 26.6584 18.1319 25.6003C17.0738 24.5422 16.5448 23.2588 16.5448 21.75C16.5448 20.2412 17.0738 18.9577 18.1319 17.8996C19.19 16.8415 20.4735 16.3125 21.9823 16.3125C23.4913 16.3125 24.7747 16.8415 25.8326 17.8996C26.8907 18.9577 27.4198 20.2412 27.4198 21.75C27.4198 23.2588 26.8907 24.5422 25.8326 25.6003C24.7747 26.6584 23.4913 27.1875 21.9823 27.1875ZM23.9947 24.5153L24.7475 23.7625L22.517 21.5316V18.1948H21.4479V21.9684L23.9947 24.5153Z" fill="black"/>
</svg>
