<svg width="21" height="21" viewBox="0 0 21 21" fill="none" xmlns="http://www.w3.org/2000/svg">
<path d="M19.4903 20.7708C17.2132 20.7708 14.9255 20.2414 12.6272 19.1825C10.3292 18.1236 8.21772 16.6299 6.29284 14.7014C4.36817 12.7727 2.87638 10.6611 1.81748 8.36668C0.758577 6.07246 0.229126 3.78679 0.229126 1.50969C0.229126 1.14376 0.349959 0.838861 0.591626 0.594979C0.833293 0.351097 1.13538 0.229156 1.49788 0.229156H5.43885C5.74396 0.229156 6.01312 0.328744 6.24632 0.527917C6.47953 0.72689 6.62786 0.972785 6.69129 1.2656L7.38397 4.82082C7.4319 5.1507 7.42183 5.43415 7.35376 5.67119C7.28549 5.90822 7.16305 6.10729 6.98643 6.26841L4.19578 8.98504C4.64488 9.80751 5.15802 10.5856 5.7352 11.3192C6.31218 12.0527 6.93689 12.7532 7.60932 13.4208C8.2723 14.084 8.97716 14.6999 9.72391 15.2684C10.4707 15.8369 11.277 16.3659 12.143 16.8555L14.8545 14.1205C15.0436 13.9237 15.2726 13.7857 15.5414 13.7066C15.8101 13.6277 16.0893 13.6083 16.3791 13.6486L19.7343 14.3319C20.0394 14.4125 20.2885 14.5681 20.4814 14.7989C20.6743 15.0297 20.7708 15.2915 20.7708 15.5844V19.5021C20.7708 19.8646 20.6489 20.1667 20.405 20.4083C20.1611 20.65 19.8562 20.7708 19.4903 20.7708ZM3.33817 7.27012L5.49474 5.20658C5.53341 5.17557 5.55858 5.13298 5.57026 5.0788C5.58194 5.02463 5.58003 4.97428 5.56452 4.92776L5.0392 2.22744C5.02369 2.16561 4.99661 2.11919 4.95794 2.08818C4.91927 2.05716 4.86892 2.04166 4.8069 2.04166H2.22288C2.17636 2.04166 2.13759 2.05716 2.10657 2.08818C2.07576 2.11919 2.06035 2.15796 2.06035 2.20448C2.12218 3.03017 2.25731 3.86896 2.46575 4.72083C2.67399 5.57291 2.96479 6.42267 3.33817 7.27012ZM13.8507 17.7128C14.6516 18.0862 15.487 18.3717 16.3568 18.5692C17.2268 18.7666 18.0397 18.8839 18.7955 18.9212C18.842 18.9212 18.8808 18.9057 18.9118 18.8746C18.9428 18.8436 18.9583 18.8049 18.9583 18.7583V16.2163C18.9583 16.1543 18.9428 16.1039 18.9118 16.0653C18.8808 16.0266 18.8343 15.9995 18.7725 15.984L16.235 15.4681C16.1885 15.4525 16.1478 15.4506 16.113 15.4623C16.0781 15.474 16.0413 15.4992 16.0024 15.5378L13.8507 17.7128Z" fill="black"/>
</svg>
