<svg width="9" height="10" viewBox="0 0 9 10" fill="none" xmlns="http://www.w3.org/2000/svg">
<path d="M1.2374 9.75C0.988068 9.75 0.775068 9.66171 0.598402 9.48513C0.421818 9.30846 0.333527 9.09546 0.333527 8.84613V3.15388C0.333527 2.90454 0.421818 2.69154 0.598402 2.51488C0.775068 2.33829 0.988068 2.25 1.2374 2.25H2.33353C2.33353 1.62567 2.55244 1.09458 2.99028 0.65675C3.42811 0.218916 3.95919 0 4.58353 0C5.20786 0 5.73894 0.218916 6.17678 0.65675C6.61461 1.09458 6.83353 1.62567 6.83353 2.25H7.92965C8.17899 2.25 8.39198 2.33829 8.56865 2.51488C8.74524 2.69154 8.83353 2.90454 8.83353 3.15388V8.84613C8.83353 9.09546 8.74524 9.30846 8.56865 9.48513C8.39198 9.66171 8.17899 9.75 7.92965 9.75H1.2374ZM1.2374 9H7.92965C7.96815 9 8.0034 8.98396 8.0354 8.95188C8.06749 8.91988 8.08353 8.88463 8.08353 8.84613V3.15388C8.08353 3.11538 8.06749 3.08012 8.0354 3.04812C8.0034 3.01604 7.96815 3 7.92965 3H1.2374C1.1989 3 1.16365 3.01604 1.13165 3.04812C1.09957 3.08012 1.08353 3.11538 1.08353 3.15388V8.84613C1.08353 8.88463 1.09957 8.91988 1.13165 8.95188C1.16365 8.98396 1.1989 9 1.2374 9ZM4.58353 5.75C5.20786 5.75 5.73894 5.53108 6.17678 5.09325C6.61461 4.65542 6.83353 4.12433 6.83353 3.5H6.08353C6.08353 3.91667 5.93769 4.27083 5.64603 4.5625C5.35436 4.85417 5.00019 5 4.58353 5C4.16686 5 3.81269 4.85417 3.52103 4.5625C3.22936 4.27083 3.08353 3.91667 3.08353 3.5H2.33353C2.33353 4.12433 2.55244 4.65542 2.99028 5.09325C3.42811 5.53108 3.95919 5.75 4.58353 5.75ZM3.08353 2.25H6.08353C6.08353 1.83333 5.93769 1.47917 5.64603 1.1875C5.35436 0.895833 5.00019 0.75 4.58353 0.75C4.16686 0.75 3.81269 0.895833 3.52103 1.1875C3.22936 1.47917 3.08353 1.83333 3.08353 2.25Z" fill="#686868"/>
</svg>
