<svg width="10" height="11" viewBox="0 0 10 11" fill="none" xmlns="http://www.w3.org/2000/svg">
<path d="M1.65387 10.6906C1.40454 10.6906 1.19154 10.6024 1.01488 10.4258C0.838292 10.2491 0.75 10.0361 0.75 9.78677V4.09452C0.75 3.84519 0.838292 3.63218 1.01488 3.45552C1.19154 3.27893 1.40454 3.19064 1.65387 3.19064H2.75C2.75 2.56631 2.96892 2.03523 3.40675 1.59739C3.84458 1.15956 4.37567 0.940643 5 0.940643C5.62433 0.940643 6.15542 1.15956 6.59325 1.59739C7.03108 2.03523 7.25 2.56631 7.25 3.19064H8.34613C8.59546 3.19064 8.80846 3.27893 8.98513 3.45552C9.16171 3.63218 9.25 3.84519 9.25 4.09452V9.78677C9.25 10.0361 9.16171 10.2491 8.98513 10.4258C8.80846 10.6024 8.59546 10.6906 8.34613 10.6906H1.65387ZM1.65387 9.94064H8.34613C8.38462 9.94064 8.41988 9.9246 8.45188 9.89252C8.48396 9.86052 8.5 9.82527 8.5 9.78677V4.09452C8.5 4.05602 8.48396 4.02077 8.45188 3.98877C8.41988 3.95668 8.38462 3.94064 8.34613 3.94064H1.65387C1.61537 3.94064 1.58013 3.95668 1.54813 3.98877C1.51604 4.02077 1.5 4.05602 1.5 4.09452V9.78677C1.5 9.82527 1.51604 9.86052 1.54813 9.89252C1.58013 9.9246 1.61537 9.94064 1.65387 9.94064ZM5 6.69064C5.62433 6.69064 6.15542 6.47173 6.59325 6.03389C7.03108 5.59606 7.25 5.06498 7.25 4.44064H6.5C6.5 4.85731 6.35417 5.21148 6.0625 5.50314C5.77083 5.79481 5.41667 5.94064 5 5.94064C4.58333 5.94064 4.22917 5.79481 3.9375 5.50314C3.64583 5.21148 3.5 4.85731 3.5 4.44064H2.75C2.75 5.06498 2.96892 5.59606 3.40675 6.03389C3.84458 6.47173 4.37567 6.69064 5 6.69064ZM3.5 3.19064H6.5C6.5 2.77398 6.35417 2.41981 6.0625 2.12814C5.77083 1.83648 5.41667 1.69064 5 1.69064C4.58333 1.69064 4.22917 1.83648 3.9375 2.12814C3.64583 2.41981 3.5 2.77398 3.5 3.19064Z" fill="white"/>
</svg>
