<svg width="23" height="20" viewBox="0 0 23 20" fill="none" xmlns="http://www.w3.org/2000/svg">
<path d="M1.83337 16.75V7.26912V7.75486V2.25V16.75ZM18.4084 19.399L14.5046 15.4951C14.2583 15.2488 14.0856 14.9882 13.9865 14.7134C13.8874 14.4383 13.8379 14.1613 13.8379 13.8826C13.8379 13.2847 14.05 12.7533 14.4744 12.2885C14.8989 11.8237 15.4466 11.5913 16.1174 11.5913C16.6424 11.5913 17.0544 11.7126 17.3535 11.955C17.6524 12.1975 18.004 12.5209 18.4084 12.9253C18.788 12.5457 19.1304 12.2285 19.4355 11.9738C19.7408 11.7188 20.1622 11.5913 20.6997 11.5913C21.3905 11.5913 21.9431 11.8268 22.3575 12.2979C22.772 12.7687 22.9792 13.3031 22.9792 13.9011C22.9792 14.18 22.9246 14.4588 22.8155 14.7375C22.7061 15.0164 22.5384 15.269 22.3122 15.4951L18.4084 19.399ZM1.83337 5.15483H21.1667V2.62186C21.1667 2.52882 21.1279 2.44363 21.0504 2.3663C20.9731 2.28877 20.8879 2.25 20.7948 2.25H2.20524C2.1122 2.25 2.02701 2.28877 1.94968 2.3663C1.87214 2.44363 1.83337 2.52882 1.83337 2.62186V5.15483ZM10.8007 18.5625H2.20524C1.59483 18.5625 1.07817 18.351 0.655249 17.9281C0.232332 17.5052 0.020874 16.9885 0.020874 16.3781V2.62186C0.020874 2.01145 0.232332 1.49479 0.655249 1.07188C1.07817 0.648958 1.59483 0.4375 2.20524 0.4375H20.7948C21.4053 0.4375 21.9219 0.648958 22.3448 1.07188C22.7678 1.49479 22.9792 2.01145 22.9792 2.62186V8.66112C22.3209 8.21967 21.6067 7.87731 20.8368 7.63403C20.0669 7.39075 19.2574 7.26912 18.4084 7.26912C17.4852 7.26912 16.6081 7.42368 15.7769 7.73281C14.9458 8.04194 14.2018 8.46828 13.5448 9.01183H1.83337V16.3781C1.83337 16.4712 1.87214 16.5564 1.94968 16.6337C2.02701 16.7112 2.1122 16.75 2.20524 16.75H10.2848C10.3373 17.0722 10.4047 17.3825 10.4869 17.6807C10.569 17.9788 10.6736 18.2727 10.8007 18.5625Z" fill="black"/>
</svg>
