<svg width="29" height="29" viewBox="0 0 29 29" fill="none" xmlns="http://www.w3.org/2000/svg">
<path d="M4.83337 21.75V12.2691V12.7549V7.25V21.75ZM21.4084 24.399L17.5046 20.4951C17.2583 20.2488 17.0856 19.9882 16.9865 19.7134C16.8874 19.4383 16.8379 19.1613 16.8379 18.8826C16.8379 18.2847 17.05 17.7533 17.4744 17.2885C17.8989 16.8237 18.4466 16.5913 19.1174 16.5913C19.6424 16.5913 20.0544 16.7126 20.3535 16.955C20.6524 17.1975 21.004 17.5209 21.4084 17.9253C21.788 17.5457 22.1304 17.2285 22.4355 16.9738C22.7408 16.7188 23.1622 16.5913 23.6997 16.5913C24.3905 16.5913 24.9431 16.8268 25.3575 17.2979C25.772 17.7687 25.9792 18.3031 25.9792 18.9011C25.9792 19.18 25.9246 19.4588 25.8155 19.7375C25.7061 20.0164 25.5384 20.269 25.3122 20.4951L21.4084 24.399ZM4.83337 10.1548H24.1667V7.62186C24.1667 7.52882 24.1279 7.44363 24.0504 7.3663C23.9731 7.28877 23.8879 7.25 23.7948 7.25H5.20524C5.1122 7.25 5.02701 7.28877 4.94968 7.3663C4.87214 7.44363 4.83337 7.52882 4.83337 7.62186V10.1548ZM13.8007 23.5625H5.20524C4.59483 23.5625 4.07817 23.351 3.65525 22.9281C3.23233 22.5052 3.02087 21.9885 3.02087 21.3781V7.62186C3.02087 7.01145 3.23233 6.49479 3.65525 6.07188C4.07817 5.64896 4.59483 5.4375 5.20524 5.4375H23.7948C24.4053 5.4375 24.9219 5.64896 25.3448 6.07188C25.7678 6.49479 25.9792 7.01145 25.9792 7.62186V13.6611C25.3209 13.2197 24.6067 12.8773 23.8368 12.634C23.0669 12.3908 22.2574 12.2691 21.4084 12.2691C20.4852 12.2691 19.6081 12.4237 18.7769 12.7328C17.9458 13.0419 17.2018 13.4683 16.5448 14.0118H4.83337V21.3781C4.83337 21.4712 4.87214 21.5564 4.94968 21.6337C5.02701 21.7112 5.1122 21.75 5.20524 21.75H13.2848C13.3373 22.0722 13.4047 22.3825 13.4869 22.6807C13.569 22.9788 13.6736 23.2727 13.8007 23.5625Z" fill="black"/>
</svg>
