<svg width="13" height="10" viewBox="0 0 13 10" fill="none" xmlns="http://www.w3.org/2000/svg">
<path d="M3.81269 9.31564C3.3677 9.31564 2.98912 9.1595 2.67694 8.84723C2.36466 8.53505 2.20852 8.15646 2.20852 7.71148H0.828795L1.02392 6.83648H2.50923C2.64457 6.61432 2.82686 6.43728 3.05611 6.30535C3.28526 6.17332 3.53745 6.10731 3.81269 6.10731C4.08793 6.10731 4.34017 6.17332 4.56942 6.30535C4.79857 6.43728 4.98086 6.61432 5.1163 6.83648H7.68063L8.93377 1.44064H2.54627L2.58215 1.2881C2.62551 1.07567 2.72925 0.902178 2.89336 0.767622C3.05757 0.632969 3.2507 0.565643 3.47275 0.565643H10.0274L9.52148 2.75314H10.981L12.6468 4.97433L12.1027 7.71148H11.1828C11.1828 8.15646 11.0267 8.53505 10.7145 8.84723C10.4023 9.1595 10.0237 9.31564 9.57879 9.31564C9.13381 9.31564 8.75518 9.1595 8.4429 8.84723C8.13072 8.53505 7.97463 8.15646 7.97463 7.71148H5.41686C5.41686 8.15646 5.26072 8.53505 4.94844 8.84723C4.63626 9.1595 4.25768 9.31564 3.81269 9.31564ZM8.86188 5.59689H11.626L11.7068 5.18404L10.5435 3.62814H9.32067L8.86188 5.59689ZM8.84846 1.78393L8.93377 1.44064L7.68063 6.83648L7.76594 6.49319L8.24486 4.40893L8.84846 1.78393ZM0.217316 5.61819L0.436066 4.74319H3.34719L3.12844 5.61819H0.217316ZM1.38398 3.53393L1.60273 2.65893H5.09719L4.87844 3.53393H1.38398ZM3.81269 8.44064C4.0154 8.44064 4.18758 8.36977 4.32923 8.22802C4.47098 8.08637 4.54186 7.91419 4.54186 7.71148C4.54186 7.50877 4.47098 7.33659 4.32923 7.19493C4.18758 7.05318 4.0154 6.98231 3.81269 6.98231C3.60998 6.98231 3.4378 7.05318 3.29615 7.19493C3.1544 7.33659 3.08352 7.50877 3.08352 7.71148C3.08352 7.91419 3.1544 8.08637 3.29615 8.22802C3.4378 8.36977 3.60998 8.44064 3.81269 8.44064ZM9.57879 8.44064C9.78141 8.44064 9.95359 8.36977 10.0953 8.22802C10.2371 8.08637 10.308 7.91419 10.308 7.71148C10.308 7.50877 10.2371 7.33659 10.0953 7.19493C9.95359 7.05318 9.78141 6.98231 9.57879 6.98231C9.37609 6.98231 9.20386 7.05318 9.06211 7.19493C8.92036 7.33659 8.84948 7.50877 8.84948 7.71148C8.84948 7.91419 8.92036 8.08637 9.06211 8.22802C9.20386 8.36977 9.37609 8.44064 9.57879 8.44064Z" fill="#686868"/>
</svg>
