<svg width="13" height="10" viewBox="0 0 13 10" fill="none" xmlns="http://www.w3.org/2000/svg">
<path d="M3.9459 9.375C3.50091 9.375 3.12233 9.21886 2.81015 8.90658C2.49787 8.5944 2.34173 8.21582 2.34173 7.77083H0.962004L1.15713 6.89583H2.64244C2.77778 6.67368 2.96007 6.49664 3.18932 6.36471C3.41847 6.23268 3.67066 6.16667 3.9459 6.16667C4.22114 6.16667 4.47338 6.23268 4.70263 6.36471C4.93178 6.49664 5.11407 6.67368 5.2495 6.89583H7.81384L9.06698 1.5H2.67948L2.71536 1.34746C2.75872 1.13503 2.86246 0.961534 3.02657 0.826979C3.19077 0.692326 3.38391 0.625 3.60596 0.625H10.1606L9.65469 2.8125H11.1142L12.78 5.03369L12.2359 7.77083H11.316C11.316 8.21582 11.1599 8.5944 10.8478 8.90658C10.5355 9.21886 10.1569 9.375 9.712 9.375C9.26702 9.375 8.88839 9.21886 8.57611 8.90658C8.26393 8.5944 8.10784 8.21582 8.10784 7.77083H5.55007C5.55007 8.21582 5.39393 8.5944 5.08165 8.90658C4.76947 9.21886 4.39089 9.375 3.9459 9.375ZM8.99509 5.65625H11.7592L11.84 5.2434L10.6767 3.6875H9.45388L8.99509 5.65625ZM8.98167 1.84329L9.06698 1.5L7.81384 6.89583L7.89915 6.55254L8.37807 4.46829L8.98167 1.84329ZM0.350525 5.67754L0.569275 4.80254H3.4804L3.26165 5.67754H0.350525ZM1.51719 3.59329L1.73594 2.71829H5.2304L5.01165 3.59329H1.51719ZM3.9459 8.5C4.14861 8.5 4.32079 8.42912 4.46244 8.28737C4.60419 8.14572 4.67507 7.97354 4.67507 7.77083C4.67507 7.56813 4.60419 7.39594 4.46244 7.25429C4.32079 7.11254 4.14861 7.04167 3.9459 7.04167C3.74319 7.04167 3.57101 7.11254 3.42936 7.25429C3.28761 7.39594 3.21673 7.56813 3.21673 7.77083C3.21673 7.97354 3.28761 8.14572 3.42936 8.28737C3.57101 8.42912 3.74319 8.5 3.9459 8.5ZM9.712 8.5C9.91461 8.5 10.0868 8.42912 10.2285 8.28737C10.3703 8.14572 10.4412 7.97354 10.4412 7.77083C10.4412 7.56813 10.3703 7.39594 10.2285 7.25429C10.0868 7.11254 9.91461 7.04167 9.712 7.04167C9.5093 7.04167 9.33707 7.11254 9.19532 7.25429C9.05357 7.39594 8.98269 7.56813 8.98269 7.77083C8.98269 7.97354 9.05357 8.14572 9.19532 8.28737C9.33707 8.42912 9.5093 8.5 9.712 8.5Z" fill="white"/>
</svg>
