<svg width="23" height="23" viewBox="0 0 23 23" fill="none" xmlns="http://www.w3.org/2000/svg">
<path d="M11.4867 18.2851C11.8317 18.2851 12.1231 18.1661 12.361 17.928C12.5988 17.6898 12.7177 17.3981 12.7177 17.0529C12.7177 16.7079 12.5986 16.4165 12.3604 16.1786C12.1221 15.941 11.8305 15.8222 11.4855 15.8222C11.1406 15.8222 10.8492 15.9413 10.6113 16.1796C10.3735 16.4178 10.2546 16.7094 10.2546 17.0544C10.2546 17.3994 10.3737 17.6908 10.6119 17.9286C10.8502 18.1663 11.1418 18.2851 11.4867 18.2851ZM10.6309 13.9583H12.332C12.3475 13.3636 12.4346 12.8885 12.5933 12.5328C12.7522 12.1774 13.1375 11.7061 13.7494 11.1191C14.2808 10.5876 14.6878 10.0968 14.9704 9.6467C15.2531 9.1968 15.3945 8.66543 15.3945 8.0526C15.3945 7.01243 15.0208 6.19993 14.2735 5.61509C13.5259 5.03046 12.6417 4.73815 11.6209 4.73815C10.6123 4.73815 9.77776 5.0073 9.11721 5.54562C8.45645 6.08393 7.9851 6.7179 7.70316 7.44753L9.25526 8.07013C9.40248 7.66896 9.65421 7.27816 10.0105 6.89774C10.3667 6.51752 10.8958 6.32741 11.5976 6.32741C12.3117 6.32741 12.8396 6.52296 13.1811 6.91405C13.5229 7.30535 13.6938 7.73562 13.6938 8.20485C13.6938 8.61549 13.5768 8.99118 13.3427 9.33193C13.1089 9.67268 12.8108 10.0018 12.4483 10.3194C11.655 11.0352 11.1539 11.6061 10.9448 12.0323C10.7356 12.4582 10.6309 13.1002 10.6309 13.9583ZM11.5022 22.9791C9.91441 22.9791 8.42201 22.6779 7.02498 22.0753C5.62794 21.4728 4.41276 20.655 3.37944 19.6221C2.34611 18.5892 1.52797 17.3745 0.925009 15.9781C0.322252 14.5816 0.020874 13.0896 0.020874 11.5021C0.020874 9.91434 0.322152 8.42195 0.924707 7.02492C1.52726 5.62788 2.345 4.4127 3.37793 3.37938C4.41085 2.34605 5.62553 1.52791 7.02196 0.924948C8.41839 0.322191 9.91038 0.020813 11.4979 0.020813C13.0857 0.020813 14.5781 0.32209 15.9751 0.924646C17.3721 1.5272 18.5873 2.34494 19.6206 3.37787C20.654 4.41079 21.4721 5.62547 22.0751 7.0219C22.6778 8.41833 22.9792 9.91032 22.9792 11.4979C22.9792 13.0856 22.6779 14.578 22.0754 15.975C21.4728 17.3721 20.6551 18.5873 19.6222 19.6206C18.5892 20.6539 17.3746 21.4721 15.9781 22.075C14.5817 22.6778 13.0897 22.9791 11.5022 22.9791ZM11.5 21.1666C14.1987 21.1666 16.4844 20.2302 18.3573 18.3573C20.2302 16.4844 21.1667 14.1986 21.1667 11.5C21.1667 8.80137 20.2302 6.5156 18.3573 4.64269C16.4844 2.76977 14.1987 1.83331 11.5 1.83331C8.80143 1.83331 6.51567 2.76977 4.64275 4.64269C2.76983 6.5156 1.83337 8.80137 1.83337 11.5C1.83337 14.1986 2.76983 16.4844 4.64275 18.3573C6.51567 20.2302 8.80143 21.1666 11.5 21.1666Z" fill="black"/>
</svg>
