<svg width="23" height="23" viewBox="0 0 23 23" fill="none" xmlns="http://www.w3.org/2000/svg">
<path d="M10.5938 17.2396H12.4063V10.2917H10.5938V17.2396ZM11.5 8.22361C11.7765 8.22361 12.0083 8.13007 12.1954 7.94298C12.3825 7.75589 12.4761 7.52409 12.4761 7.24758C12.4761 6.97108 12.3825 6.73928 12.1954 6.55219C12.0083 6.3653 11.7765 6.27185 11.5 6.27185C11.2235 6.27185 10.9917 6.3653 10.8046 6.55219C10.6176 6.73928 10.524 6.97108 10.524 7.24758C10.524 7.52409 10.6176 7.75589 10.8046 7.94298C10.9917 8.13007 11.2235 8.22361 11.5 8.22361ZM11.5022 22.9792C9.91441 22.9792 8.42201 22.6779 7.02498 22.0753C5.62794 21.4728 4.41276 20.655 3.37944 19.6221C2.34611 18.5892 1.52797 17.3745 0.925009 15.9781C0.322252 14.5817 0.020874 13.0897 0.020874 11.5021C0.020874 9.91438 0.322152 8.42198 0.924707 7.02495C1.52726 5.62791 2.345 4.41273 3.37793 3.37941C4.41085 2.34608 5.62553 1.52794 7.02196 0.924979C8.41839 0.322222 9.91038 0.0208435 11.4979 0.0208435C13.0857 0.0208435 14.5781 0.322121 15.9751 0.924676C17.3721 1.52723 18.5873 2.34497 19.6206 3.3779C20.654 4.41082 21.4721 5.6255 22.0751 7.02193C22.6778 8.41836 22.9792 9.91035 22.9792 11.4979C22.9792 13.0856 22.6779 14.578 22.0754 15.9751C21.4728 17.3721 20.6551 18.5873 19.6222 19.6206C18.5892 20.6539 17.3746 21.4721 15.9781 22.075C14.5817 22.6778 13.0897 22.9792 11.5022 22.9792ZM11.5 21.1667C14.1987 21.1667 16.4844 20.2302 18.3573 18.3573C20.2302 16.4844 21.1667 14.1986 21.1667 11.5C21.1667 8.8014 20.2302 6.51564 18.3573 4.64272C16.4844 2.7698 14.1987 1.83334 11.5 1.83334C8.80143 1.83334 6.51567 2.7698 4.64275 4.64272C2.76983 6.51564 1.83337 8.8014 1.83337 11.5C1.83337 14.1986 2.76983 16.4844 4.64275 18.3573C6.51567 20.2302 8.80143 21.1667 11.5 21.1667Z" fill="black"/>
</svg>
