<svg width="16" height="4" viewBox="0 0 16 4" fill="none" xmlns="http://www.w3.org/2000/svg">
<path d="M2.23071 3.21136C1.81821 3.21136 1.46513 3.06445 1.17146 2.77061C0.87763 2.47695 0.730713 2.12386 0.730713 1.71136C0.730713 1.29886 0.87763 0.945782 1.17146 0.652115C1.46513 0.358282 1.81821 0.211365 2.23071 0.211365C2.64321 0.211365 2.99638 0.358282 3.29021 0.652115C3.58388 0.945782 3.73071 1.29886 3.73071 1.71136C3.73071 2.12386 3.58388 2.47695 3.29021 2.77061C2.99638 3.06445 2.64321 3.21136 2.23071 3.21136ZM7.99996 3.21136C7.58746 3.21136 7.23438 3.06445 6.94071 2.77061C6.64688 2.47695 6.49996 2.12386 6.49996 1.71136C6.49996 1.29886 6.64688 0.945782 6.94071 0.652115C7.23438 0.358282 7.58746 0.211365 7.99996 0.211365C8.41246 0.211365 8.76555 0.358282 9.05921 0.652115C9.35305 0.945782 9.49996 1.29886 9.49996 1.71136C9.49996 2.12386 9.35305 2.47695 9.05921 2.77061C8.76555 3.06445 8.41246 3.21136 7.99996 3.21136ZM13.7692 3.21136C13.3567 3.21136 13.0035 3.06445 12.7097 2.77061C12.416 2.47695 12.2692 2.12386 12.2692 1.71136C12.2692 1.29886 12.416 0.945782 12.7097 0.652115C13.0035 0.358282 13.3567 0.211365 13.7692 0.211365C14.1817 0.211365 14.5348 0.358282 14.8285 0.652115C15.1223 0.945782 15.2692 1.29886 15.2692 1.71136C15.2692 2.12386 15.1223 2.47695 14.8285 2.77061C14.5348 3.06445 14.1817 3.21136 13.7692 3.21136Z" fill="black"/>
</svg>
