<svg width="19" height="24" viewBox="0 0 19 24" fill="none" xmlns="http://www.w3.org/2000/svg">
<path d="M0.4375 20.0319V18.2822H2.62186V9.57682C2.62186 8.00785 3.12342 6.62059 4.12654 5.41503C5.12946 4.20948 6.41714 3.43841 7.98958 3.10182V2.37499C7.98958 1.96996 8.1363 1.6256 8.42972 1.34191C8.72314 1.05841 9.0794 0.916656 9.49849 0.916656C9.91778 0.916656 10.2745 1.05841 10.5688 1.34191C10.8632 1.6256 11.0104 1.96996 11.0104 2.37499V3.10182C12.5829 3.43841 13.8705 4.20948 14.8735 5.41503C15.8766 6.62059 16.3781 8.00785 16.3781 9.57682V18.2822H18.5625V20.0319H0.4375ZM9.49788 23.3076C8.89674 23.3076 8.3828 23.1011 7.95605 22.6881C7.52911 22.2751 7.31564 21.7786 7.31564 21.1986H11.6844C11.6844 21.7805 11.4703 22.2775 11.0421 22.6896C10.614 23.1016 10.0992 23.3076 9.49788 23.3076ZM4.43436 18.2822H14.5656V9.57682C14.5656 8.22621 14.0711 7.07345 13.0821 6.11853C12.0929 5.16342 10.8988 4.68586 9.5 4.68586C8.10115 4.68586 6.90712 5.16342 5.9179 6.11853C4.92888 7.07345 4.43436 8.22621 4.43436 9.57682V18.2822Z" fill="black"/>
</svg>
