<svg width="25" height="30" viewBox="0 0 25 30" fill="none" xmlns="http://www.w3.org/2000/svg">
<path d="M3.01929 29.0655C2.31285 29.0655 1.70935 28.808 1.20879 28.293C0.708473 27.7777 0.458313 27.1565 0.458313 26.4292V9.82685C0.458313 9.09963 0.708473 8.47838 1.20879 7.9631C1.70935 7.44807 2.31285 7.19055 3.01929 7.19055H6.12498C6.12498 5.36958 6.74524 3.82059 7.98577 2.54357C9.2263 1.26656 10.731 0.628052 12.5 0.628052C14.2689 0.628052 15.7737 1.26656 17.0142 2.54357C18.2547 3.82059 18.875 5.36958 18.875 7.19055H21.9807C22.6871 7.19055 23.2906 7.44807 23.7912 7.9631C24.2915 8.47838 24.5416 9.09963 24.5416 9.82685V26.4292C24.5416 27.1565 24.2915 27.7777 23.7912 28.293C23.2906 28.808 22.6871 29.0655 21.9807 29.0655H3.01929ZM3.01929 26.8781H21.9807C22.0898 26.8781 22.1896 26.8313 22.2803 26.7377C22.3712 26.6444 22.4166 26.5415 22.4166 26.4292V9.82685C22.4166 9.71456 22.3712 9.61175 22.2803 9.51842C22.1896 9.42484 22.0898 9.37805 21.9807 9.37805H3.01929C2.91021 9.37805 2.81033 9.42484 2.71967 9.51842C2.62876 9.61175 2.58331 9.71456 2.58331 9.82685V26.4292C2.58331 26.5415 2.62876 26.6444 2.71967 26.7377C2.81033 26.8313 2.91021 26.8781 3.01929 26.8781ZM12.5 17.3989C14.2689 17.3989 15.7737 16.7604 17.0142 15.4834C18.2547 14.2063 18.875 12.6574 18.875 10.8364H16.75C16.75 12.0517 16.3368 13.0846 15.5104 13.9353C14.684 14.786 13.6805 15.2114 12.5 15.2114C11.3194 15.2114 10.316 14.786 9.48956 13.9353C8.66317 13.0846 8.24998 12.0517 8.24998 10.8364H6.12498C6.12498 12.6574 6.74524 14.2063 7.98577 15.4834C9.2263 16.7604 10.731 17.3989 12.5 17.3989ZM8.24998 7.19055H16.75C16.75 5.97527 16.3368 4.94229 15.5104 4.09159C14.684 3.2409 13.6805 2.81555 12.5 2.81555C11.3194 2.81555 10.316 3.2409 9.48956 4.09159C8.66317 4.94229 8.24998 5.97527 8.24998 7.19055Z" fill="#0000FF"/>
</svg>
