<svg width="29" height="29" viewBox="0 0 29 29" fill="none" xmlns="http://www.w3.org/2000/svg">
<path d="M14.5 20.2094C16.4861 18.5362 17.9896 16.9197 19.0104 15.3597C20.0313 13.7998 20.5417 12.3382 20.5417 10.975C20.5417 9.17799 19.9778 7.70513 18.85 6.55641C17.7223 5.40769 16.2723 4.83333 14.5 4.83333C12.7278 4.83333 11.2778 5.40769 10.15 6.55641C9.02226 7.70513 8.45837 9.17799 8.45837 10.975C8.45837 12.3382 8.96879 13.7998 9.98963 15.3597C11.0105 16.9197 12.5139 18.5362 14.5 20.2094ZM14.5 22.5052C11.885 20.4804 9.92227 18.5026 8.61183 16.5717C7.30119 14.6406 6.64587 12.775 6.64587 10.975C6.64587 8.65116 7.37712 6.74451 8.8396 5.25504C10.3019 3.76557 12.1887 3.02083 14.5 3.02083C16.8114 3.02083 18.6982 3.76557 20.1605 5.25504C21.623 6.74451 22.3542 8.65116 22.3542 10.975C22.3542 12.775 21.6989 14.6386 20.3882 16.5656C19.0778 18.4929 17.1151 20.4728 14.5 22.5052ZM14.5 13.0594C15.1026 13.0594 15.6172 12.8459 16.044 12.4189C16.4709 11.9922 16.6844 11.4776 16.6844 10.875C16.6844 10.2724 16.4709 9.75779 16.044 9.33105C15.6172 8.9041 15.1026 8.69063 14.5 8.69063C13.8975 8.69063 13.3828 8.9041 12.9561 9.33105C12.5291 9.75779 12.3157 10.2724 12.3157 10.875C12.3157 11.4776 12.5291 11.9922 12.9561 12.4189C13.3828 12.8459 13.8975 13.0594 14.5 13.0594ZM6.64587 25.9792V24.1667H22.3542V25.9792H6.64587Z" fill="black"/>
</svg>
