<svg width="17" height="23" viewBox="0 0 17 23" fill="none" xmlns="http://www.w3.org/2000/svg">
<path d="M8.50004 17.2094C10.4861 15.5362 11.9896 13.9197 13.0104 12.3597C14.0313 10.7998 14.5417 9.33819 14.5417 7.97498C14.5417 6.17799 13.9778 4.70513 12.85 3.55641C11.7223 2.40769 10.2723 1.83333 8.50004 1.83333C6.72782 1.83333 5.27782 2.40769 4.15004 3.55641C3.02226 4.70513 2.45837 6.17799 2.45837 7.97498C2.45837 9.33819 2.96879 10.7998 3.98963 12.3597C5.01047 13.9197 6.51394 15.5362 8.50004 17.2094ZM8.50004 19.5052C5.88501 17.4804 3.92227 15.5026 2.61183 13.5717C1.30119 11.6406 0.645874 9.775 0.645874 7.97498C0.645874 5.65116 1.37712 3.74451 2.8396 2.25504C4.30189 0.765565 6.1887 0.0208282 8.50004 0.0208282C10.8114 0.0208282 12.6982 0.765565 14.1605 2.25504C15.623 3.74451 16.3542 5.65116 16.3542 7.97498C16.3542 9.775 15.6989 11.6386 14.3882 13.5656C13.0778 15.4929 11.1151 17.4728 8.50004 19.5052ZM8.50004 10.0594C9.1026 10.0594 9.61724 9.84589 10.044 9.41894C10.4709 8.9922 10.6844 8.47755 10.6844 7.875C10.6844 7.27244 10.4709 6.75779 10.044 6.33105C9.61724 5.9041 9.1026 5.69063 8.50004 5.69063C7.89748 5.69063 7.38284 5.9041 6.95609 6.33105C6.52915 6.75779 6.31568 7.27244 6.31568 7.875C6.31568 8.47755 6.52915 8.9922 6.95609 9.41894C7.38284 9.84589 7.89748 10.0594 8.50004 10.0594ZM0.645874 22.9792V21.1667H16.3542V22.9792H0.645874Z" fill="black"/>
</svg>
