<svg width="28" height="29" viewBox="0 0 28 29" fill="none" xmlns="http://www.w3.org/2000/svg">
<path d="M20.2627 24.694L24.8677 20.1396L23.6449 18.9168L20.2627 22.24L18.855 20.8181L17.6322 22.0632L20.2627 24.694ZM4.31105 8.39967H20.6889V6.21254H4.31105V8.39967ZM21.25 28.3679C19.429 28.3679 17.88 27.7294 16.603 26.4524C15.326 25.1754 14.6875 23.6264 14.6875 21.8054C14.6875 19.9844 15.326 18.4354 16.603 17.1584C17.88 15.8814 19.429 15.2429 21.25 15.2429C23.0709 15.2429 24.6199 15.8814 25.8969 17.1584C27.174 18.4354 27.8125 19.9844 27.8125 21.8054C27.8125 23.6264 27.174 25.1754 25.8969 26.4524C24.6199 27.7294 23.0709 28.3679 21.25 28.3679ZM0.104126 26.6569V3.21165C0.104126 2.48443 0.361643 1.86318 0.876678 1.3479C1.39196 0.832865 2.01321 0.575348 2.74043 0.575348H22.2595C22.9867 0.575348 23.608 0.832865 24.1232 1.3479C24.6383 1.86318 24.8958 2.48443 24.8958 3.21165V12.413C24.546 12.2596 24.1913 12.1312 23.8316 12.0276C23.4716 11.9239 23.0972 11.8449 22.7083 11.7907V3.21165C22.7083 3.09936 22.6615 2.99655 22.5679 2.90321C22.4746 2.80964 22.3718 2.76285 22.2595 2.76285H2.74043C2.62814 2.76285 2.52532 2.80964 2.43199 2.90321C2.33841 2.99655 2.29163 3.09936 2.29163 3.21165V23.2524H11.3475C11.4408 23.8282 11.5777 24.3817 11.758 24.9127C11.9386 25.4436 12.1794 25.9474 12.4803 26.4243L12.3457 26.5588L10.4248 24.8621L8.34918 26.6569L6.27397 24.8621L4.19876 26.6569L2.12355 24.8621L0.104126 26.6569ZM4.31105 19.7298H11.4456C11.509 19.3409 11.5974 18.9666 11.7106 18.6069C11.8237 18.2469 11.9615 17.8922 12.1241 17.5427H4.31105V19.7298ZM4.31105 14.0649H14.8194C15.5187 13.4274 16.3114 12.9152 17.1976 12.5282C18.0838 12.141 19.0279 11.9241 20.0301 11.8774H4.31105V14.0649Z" fill="#AAAAAA"/>
</svg>
