<svg width="28" height="29" viewBox="0 0 28 29" fill="none" xmlns="http://www.w3.org/2000/svg">
<path d="M20.2627 24.9342L24.8677 20.3798L23.6449 19.157L20.2627 22.4802L18.855 21.0583L17.6322 22.3034L20.2627 24.9342ZM4.31105 8.63987H20.6889V6.45274H4.31105V8.63987ZM21.25 28.6081C19.429 28.6081 17.88 27.9696 16.603 26.6926C15.326 25.4156 14.6875 23.8666 14.6875 22.0456C14.6875 20.2246 15.326 18.6756 16.603 17.3986C17.88 16.1216 19.429 15.4831 21.25 15.4831C23.0709 15.4831 24.6199 16.1216 25.8969 17.3986C27.174 18.6756 27.8125 20.2246 27.8125 22.0456C27.8125 23.8666 27.174 25.4156 25.8969 26.6926C24.6199 27.9696 23.0709 28.6081 21.25 28.6081ZM0.104126 26.8971V3.45185C0.104126 2.72463 0.361643 2.10338 0.876678 1.5881C1.39196 1.07307 2.01321 0.815552 2.74043 0.815552H22.2595C22.9867 0.815552 23.608 1.07307 24.1232 1.5881C24.6383 2.10338 24.8958 2.72463 24.8958 3.45185V12.6532C24.546 12.4998 24.1913 12.3714 23.8316 12.2678C23.4716 12.1641 23.0972 12.0851 22.7083 12.0309V3.45185C22.7083 3.33956 22.6615 3.23675 22.5679 3.14342C22.4746 3.04984 22.3718 3.00305 22.2595 3.00305H2.74043C2.62814 3.00305 2.52532 3.04984 2.43199 3.14342C2.33841 3.23675 2.29163 3.33956 2.29163 3.45185V23.4926H11.3475C11.4408 24.0684 11.5777 24.6219 11.758 25.1529C11.9386 25.6838 12.1794 26.1876 12.4803 26.6645L12.3457 26.799L10.4248 25.1023L8.34918 26.8971L6.27397 25.1023L4.19876 26.8971L2.12355 25.1023L0.104126 26.8971ZM4.31105 19.97H11.4456C11.509 19.5811 11.5974 19.2068 11.7106 18.8471C11.8237 18.4872 11.9615 18.1324 12.1241 17.7829H4.31105V19.97ZM4.31105 14.3051H14.8194C15.5187 13.6676 16.3114 13.1554 17.1976 12.7684C18.0838 12.3812 19.0279 12.1643 20.0301 12.1176H4.31105V14.3051Z" fill="#0000FF"/>
</svg>
