<svg width="23" height="23" viewBox="0 0 23 23" fill="none" xmlns="http://www.w3.org/2000/svg">
<path d="M21.641 22.5786L13.5284 14.4657C12.8826 14.9989 12.1399 15.4162 11.3003 15.7176C10.4607 16.019 9.59216 16.1697 8.69467 16.1697C6.487 16.1697 4.6186 15.4054 3.08948 13.8767C1.56037 12.348 0.795807 10.48 0.795807 8.27277C0.795807 6.06574 1.56015 4.19713 3.08884 2.66694C4.61753 1.13696 6.48549 0.371967 8.69273 0.371967C10.8998 0.371967 12.7684 1.13653 14.2986 2.66564C15.8285 4.19476 16.5935 6.06316 16.5935 8.27083C16.5935 9.1933 16.4388 10.0743 16.1292 10.9139C15.8194 11.7535 15.4062 12.4837 14.8895 13.1046L23.0021 21.2172L21.641 22.5786ZM8.69467 14.2325C10.359 14.2325 11.7686 13.6549 12.9236 12.4997C14.0788 11.3448 14.6564 9.93514 14.6564 8.27083C14.6564 6.60652 14.0788 5.19688 12.9236 4.04191C11.7686 2.88673 10.359 2.30914 8.69467 2.30914C7.03036 2.30914 5.62072 2.88673 4.46575 4.04191C3.31057 5.19688 2.73298 6.60652 2.73298 8.27083C2.73298 9.93514 3.31057 11.3448 4.46575 12.4997C5.62072 13.6549 7.03036 14.2325 8.69467 14.2325Z" fill="#0000FF"/>
</svg>
