<svg width="23" height="23" viewBox="0 0 23 23" fill="none" xmlns="http://www.w3.org/2000/svg">
<path d="M4.27783 17.8948C5.30492 17.1327 6.42383 16.5309 7.63458 16.0893C8.84513 15.6478 10.1336 15.4271 11.5 15.4271C12.8665 15.4271 14.155 15.6478 15.3655 16.0893C16.5763 16.5309 17.6952 17.1327 18.7222 17.8948C19.4734 17.0691 20.0686 16.1133 20.5079 15.0274C20.9471 13.9415 21.1667 12.7657 21.1667 11.5C21.1667 8.82153 20.2252 6.5408 18.3422 4.65781C16.4592 2.77483 14.1785 1.83334 11.5 1.83334C8.82157 1.83334 6.54084 2.77483 4.65785 4.65781C2.77487 6.5408 1.83337 8.82153 1.83337 11.5C1.83337 12.7657 2.05299 13.9415 2.49222 15.0274C2.93145 16.1133 3.52665 17.0691 4.27783 17.8948ZM11.5003 12.4063C10.3971 12.4063 9.46682 12.0276 8.7094 11.2704C7.95177 10.513 7.57296 9.58268 7.57296 8.47947C7.57296 7.37626 7.95157 6.44595 8.70879 5.68852C9.46622 4.9309 10.3965 4.55209 11.4997 4.55209C12.6029 4.55209 13.5333 4.9307 14.2907 5.68792C15.0483 6.44534 15.4271 7.37566 15.4271 8.47887C15.4271 9.58208 15.0485 10.5124 14.2913 11.2698C13.5339 12.0274 12.6036 12.4063 11.5003 12.4063ZM11.5 22.9792C9.90605 22.9792 8.41074 22.6794 7.0141 22.0799C5.61747 21.4803 4.40259 20.6639 3.36947 19.6306C2.33614 18.5975 1.51971 17.3826 0.920176 15.9859C0.320642 14.5893 0.020874 13.094 0.020874 11.5C0.020874 9.90601 0.320642 8.4107 0.920176 7.01407C1.51971 5.61743 2.33614 4.40255 3.36947 3.36943C4.40259 2.3361 5.61747 1.51967 7.0141 0.920139C8.41074 0.320604 9.90605 0.0208359 11.5 0.0208359C13.094 0.0208359 14.5893 0.320604 15.986 0.920139C17.3826 1.51967 18.5975 2.3361 19.6306 3.36943C20.6639 4.40255 21.4804 5.61743 22.0799 7.01407C22.6794 8.4107 22.9792 9.90601 22.9792 11.5C22.9792 13.094 22.6794 14.5893 22.0799 15.9859C21.4804 17.3826 20.6639 18.5975 19.6306 19.6306C18.5975 20.6639 17.3826 21.4803 15.986 22.0799C14.5893 22.6794 13.094 22.9792 11.5 22.9792ZM11.5 21.1667C12.5906 21.1667 13.642 20.9913 14.6544 20.6404C15.6668 20.2894 16.5657 19.7987 17.3511 19.1684C16.5657 18.561 15.6785 18.0877 14.6894 17.7486C13.7002 17.4093 12.6371 17.2396 11.5 17.2396C10.363 17.2396 9.29795 17.4072 8.30491 17.7426C7.31186 18.0781 6.42655 18.5533 5.64899 19.1684C6.43441 19.7987 7.3333 20.2894 8.34569 20.6404C9.35807 20.9913 10.4095 21.1667 11.5 21.1667ZM11.5 10.5938C12.1012 10.5938 12.6039 10.3916 13.008 9.98717C13.4124 9.58298 13.6146 9.08032 13.6146 8.47917C13.6146 7.87802 13.4124 7.37536 13.008 6.97117C12.6039 6.56678 12.1012 6.36459 11.5 6.36459C10.8989 6.36459 10.3962 6.56678 9.99204 6.97117C9.58765 7.37536 9.38546 7.87802 9.38546 8.47917C9.38546 9.08032 9.58765 9.58298 9.99204 9.98717C10.3962 10.3916 10.8989 10.5938 11.5 10.5938Z" fill="black"/>
</svg>
